<svg xmlns="http://www.w3.org/2000/svg" width="36" height="36" viewBox="0 0 36 36">
  <path id="Icon_simple-dribbble" data-name="Icon simple-dribbble" d="M18,36A18,18,0,1,1,36,18,18.024,18.024,0,0,1,18,36ZM33.18,20.463a22.549,22.549,0,0,0-9.576-.657,66.492,66.492,0,0,1,2.988,10.962,15.421,15.421,0,0,0,6.592-10.305ZM24.007,32.175A63.963,63.963,0,0,0,20.722,20.52l-.1.03c-8.685,3.023-11.79,9.038-12.06,9.6A15.335,15.335,0,0,0,24,32.178Zm-17.43-3.87c.348-.6,4.568-7.583,12.5-10.147.2-.067.405-.126.608-.18-.39-.878-.81-1.75-1.248-2.61a56.67,56.67,0,0,1-15.8,2.182l-.006.468A15.327,15.327,0,0,0,6.579,28.3ZM2.947,14.873A57.091,57.091,0,0,0,17.163,13a98.21,98.21,0,0,0-5.7-8.892A15.413,15.413,0,0,0,2.949,14.864ZM14.4,3.078a82.038,82.038,0,0,1,5.733,9c5.468-2.047,7.785-5.16,8.059-5.553A15.34,15.34,0,0,0,14.4,3.074ZM29.9,8.3a20.555,20.555,0,0,1-8.586,6.06c.36.735.7,1.477,1.02,2.229.12.27.225.54.33.8a36,36,0,0,1,10.71.5,15.216,15.216,0,0,0-3.465-9.57Z" fill="#707070"/>
</svg>
