<?xml version="1.0" encoding="UTF-8"?>
<svg version="1.1" viewBox="0 0 700 580" xmlns="http://www.w3.org/2000/svg" xmlns:xlink="http://www.w3.org/1999/xlink">
 <defs>
  <symbol id="v" overflow="visible">
   <path fill="#ffffff" d="m1.8281-0.10938c-0.09375 0.054688-0.19531 0.089844-0.29688 0.10938-0.09375 0.019531-0.19922 0.03125-0.3125 0.03125-0.33594 0-0.60156-0.085938-0.79688-0.26562-0.1875-0.1875-0.28125-0.44141-0.28125-0.76562 0-0.3125 0.09375-0.5625 0.28125-0.75 0.19531-0.1875 0.46094-0.28125 0.79688-0.28125 0.11328 0 0.21875 0.015625 0.3125 0.046875 0.10156 0.023437 0.20312 0.058594 0.29688 0.10938v0.40625c-0.09375-0.0625-0.1875-0.10938-0.28125-0.14062s-0.19531-0.046875-0.29688-0.046875c-0.17969 0-0.32031 0.0625-0.42188 0.1875-0.10547 0.11719-0.15625 0.27344-0.15625 0.46875 0 0.21094 0.050781 0.375 0.15625 0.5 0.10156 0.11719 0.24219 0.17188 0.42188 0.17188 0.10156 0 0.20312-0.015625 0.29688-0.046875s0.1875-0.078125 0.28125-0.14062z"/>
  </symbol>
  <symbol id="f" overflow="visible">
   <path fill="#ffffff" d="m1.3438-1.0938c-0.042969-0.019531-0.085938-0.03125-0.125-0.03125-0.042969-0.007812-0.085938-0.015625-0.125-0.015625-0.125 0-0.22656 0.042969-0.29688 0.125-0.0625 0.074219-0.09375 0.18359-0.09375 0.32812v0.6875h-0.46875v-1.5h0.46875v0.25c0.0625-0.09375 0.12891-0.16016 0.20312-0.20312 0.082031-0.050781 0.17969-0.078125 0.29688-0.078125h0.046875c0.019531 0 0.050781 0.007812 0.09375 0.015625z"/>
  </symbol>
  <symbol id="a" overflow="visible">
   <path fill="#ffffff" d="m1.7188-0.75v0.14062h-1.1094c0.007813 0.10547 0.046875 0.1875 0.10938 0.25 0.070312 0.054687 0.17188 0.078125 0.29688 0.078125 0.10156 0 0.20703-0.015625 0.3125-0.046875 0.10156-0.03125 0.21094-0.070313 0.32812-0.125v0.35938c-0.11719 0.042969-0.23047 0.074219-0.34375 0.09375-0.11719 0.019531-0.23047 0.03125-0.34375 0.03125-0.27344 0-0.48047-0.066406-0.625-0.20312-0.14844-0.13281-0.21875-0.32812-0.21875-0.57812 0-0.23828 0.070312-0.42578 0.21875-0.5625 0.14453-0.14453 0.34766-0.21875 0.60938-0.21875 0.22656 0 0.41016 0.074219 0.54688 0.21875 0.14453 0.13672 0.21875 0.32422 0.21875 0.5625zm-0.48438-0.15625c0-0.09375-0.027344-0.16406-0.078125-0.21875-0.054688-0.0625-0.125-0.09375-0.21875-0.09375-0.085938 0-0.15625 0.027344-0.21875 0.078125-0.0625 0.054687-0.10156 0.13281-0.10938 0.23438z"/>
  </symbol>
  <symbol id="e" overflow="visible">
   <path fill="#ffffff" d="m0.90625-0.67188c-0.10547 0-0.18359 0.015625-0.23438 0.046875-0.054687 0.03125-0.078125 0.085938-0.078125 0.15625 0 0.0625 0.019531 0.10938 0.0625 0.14062 0.039062 0.03125 0.097656 0.046875 0.17188 0.046875 0.09375 0 0.16406-0.03125 0.21875-0.09375 0.0625-0.0625 0.09375-0.14453 0.09375-0.25v-0.046875zm0.71875-0.1875v0.85938h-0.48438v-0.21875c-0.0625 0.09375-0.13672 0.16406-0.21875 0.20312-0.074219 0.03125-0.16797 0.046875-0.28125 0.046875-0.15625 0-0.28125-0.039062-0.375-0.125-0.09375-0.09375-0.14062-0.21094-0.14062-0.35938 0-0.17578 0.054688-0.30078 0.17188-0.375 0.125-0.082031 0.3125-0.125 0.5625-0.125h0.28125v-0.046875c0-0.070312-0.03125-0.125-0.09375-0.15625-0.054687-0.039062-0.14062-0.0625-0.26562-0.0625-0.10547 0-0.20312 0.011719-0.29688 0.03125-0.085937 0.023438-0.16406 0.054688-0.23438 0.09375v-0.35938c0.10156-0.03125 0.20703-0.050781 0.3125-0.0625 0.10156-0.007813 0.20312-0.015625 0.29688-0.015625 0.26953 0 0.46094 0.054688 0.57812 0.15625 0.125 0.10547 0.1875 0.27734 0.1875 0.51562z"/>
  </symbol>
  <symbol id="d" overflow="visible">
   <path fill="#ffffff" d="m0.75-1.9219v0.42188h0.5v0.34375h-0.5v0.64062c0 0.0625 0.007812 0.10938 0.03125 0.14062 0.03125 0.023438 0.085938 0.03125 0.17188 0.03125h0.25v0.34375h-0.40625c-0.1875 0-0.32422-0.035156-0.40625-0.10938-0.074219-0.082031-0.10938-0.21875-0.10938-0.40625v-0.64062h-0.25v-0.34375h0.25v-0.42188z"/>
  </symbol>
  <symbol id="k" overflow="visible">
   <path fill="#ffffff" d="m1.25-1.2812v-0.79688h0.48438v2.0781h-0.48438v-0.21875c-0.074219 0.09375-0.15234 0.16406-0.23438 0.20312-0.074219 0.03125-0.16406 0.046875-0.26562 0.046875-0.17969 0-0.32812-0.070312-0.45312-0.21875-0.11719-0.14453-0.17188-0.33203-0.17188-0.5625 0-0.22656 0.054688-0.41406 0.17188-0.5625 0.125-0.14453 0.27344-0.21875 0.45312-0.21875 0.10156 0 0.19141 0.023438 0.26562 0.0625 0.082031 0.042969 0.16016 0.10547 0.23438 0.1875zm-0.3125 0.96875c0.09375 0 0.16406-0.035156 0.21875-0.10938 0.0625-0.070313 0.09375-0.17969 0.09375-0.32812 0-0.13281-0.03125-0.23828-0.09375-0.3125-0.054688-0.082031-0.125-0.125-0.21875-0.125-0.10547 0-0.18359 0.042969-0.23438 0.125-0.054687 0.074219-0.078125 0.17969-0.078125 0.3125 0 0.14844 0.023438 0.25781 0.078125 0.32812 0.050781 0.074219 0.12891 0.10938 0.23438 0.10938z"/>
  </symbol>
  <symbol id="j" overflow="visible">
   <path fill="#ffffff" d="m1.0312-0.3125c0.09375 0 0.16406-0.035156 0.21875-0.10938 0.0625-0.070313 0.09375-0.17969 0.09375-0.32812 0-0.13281-0.03125-0.23828-0.09375-0.3125-0.054688-0.082031-0.125-0.125-0.21875-0.125-0.10547 0-0.1875 0.042969-0.25 0.125-0.054688 0.074219-0.078125 0.17969-0.078125 0.3125 0 0.14844 0.023437 0.25781 0.078125 0.32812 0.0625 0.074219 0.14453 0.10938 0.25 0.10938zm-0.32812-0.96875c0.070313-0.082031 0.14453-0.14453 0.21875-0.1875 0.082031-0.039062 0.17578-0.0625 0.28125-0.0625 0.1875 0 0.33594 0.074219 0.45312 0.21875 0.11328 0.14844 0.17188 0.33594 0.17188 0.5625 0 0.23047-0.058594 0.41797-0.17188 0.5625-0.11719 0.14844-0.26562 0.21875-0.45312 0.21875-0.10547 0-0.19922-0.015625-0.28125-0.046875-0.074219-0.039062-0.14844-0.10938-0.21875-0.20312v0.21875h-0.46875v-2.0781h0.46875z"/>
  </symbol>
  <symbol id="i" overflow="visible">
   <path fill="#ffffff" d="m0.03125-1.5h0.48438l0.39062 1.0156 0.34375-1.0156h0.48438l-0.625 1.6406c-0.0625 0.16406-0.14062 0.28125-0.23438 0.34375-0.085938 0.070313-0.19531 0.10938-0.32812 0.10938h-0.26562v-0.3125h0.14062c0.082031 0 0.14062-0.015625 0.17188-0.046875 0.039062-0.023437 0.070312-0.070313 0.09375-0.14062l0.015625-0.03125z"/>
  </symbol>
  <symbol id="c" overflow="visible">
   <path fill="#ffffff" d="m1.3906-1.4531v0.375c-0.09375-0.050781-0.19531-0.085937-0.29688-0.10938-0.09375-0.019531-0.18359-0.03125-0.26562-0.03125-0.085937 0-0.15234 0.015625-0.20312 0.046875-0.042969 0.023437-0.0625 0.054687-0.0625 0.09375 0 0.042969 0.015625 0.074219 0.046875 0.09375 0.03125 0.023437 0.09375 0.039063 0.1875 0.046875l0.078125 0.015625c0.25 0.03125 0.41406 0.085937 0.5 0.15625 0.082031 0.0625 0.125 0.17188 0.125 0.32812s-0.0625 0.27734-0.1875 0.35938c-0.11719 0.074219-0.28906 0.10938-0.51562 0.10938-0.10547 0-0.21094-0.011719-0.3125-0.03125-0.10547-0.0078125-0.21094-0.03125-0.3125-0.0625v-0.35938c0.09375 0.054687 0.1875 0.089844 0.28125 0.10938 0.10156 0.023438 0.20703 0.03125 0.3125 0.03125 0.09375 0 0.16016-0.007812 0.20312-0.03125 0.050781-0.03125 0.078125-0.070312 0.078125-0.125 0-0.039062-0.015625-0.070312-0.046875-0.09375-0.03125-0.019531-0.10156-0.035156-0.20312-0.046875l-0.078125-0.015625c-0.21875-0.019531-0.37109-0.066406-0.45312-0.14062-0.085937-0.070313-0.125-0.17969-0.125-0.32812 0-0.15625 0.050781-0.26953 0.15625-0.34375 0.11328-0.082031 0.28125-0.125 0.5-0.125 0.09375 0 0.1875 0.011719 0.28125 0.03125 0.10156 0.011719 0.20703 0.027344 0.3125 0.046875z"/>
  </symbol>
  <symbol id="b" overflow="visible">
   <path fill="#ffffff" d="m1.7344-0.90625v0.90625h-0.48438v-0.6875c0-0.13281-0.007812-0.22266-0.015625-0.26562 0-0.050781-0.007813-0.09375-0.015625-0.125-0.023438-0.03125-0.046875-0.050781-0.078125-0.0625-0.03125-0.019531-0.070313-0.03125-0.10938-0.03125-0.10547 0-0.1875 0.042969-0.25 0.125-0.054688 0.074219-0.078125 0.17969-0.078125 0.3125v0.73438h-0.46875v-2.0781h0.46875v0.79688c0.070313-0.082031 0.14844-0.14453 0.23438-0.1875 0.082031-0.039062 0.17188-0.0625 0.26562-0.0625 0.17578 0 0.30469 0.054688 0.39062 0.15625 0.09375 0.10547 0.14062 0.26172 0.14062 0.46875z"/>
  </symbol>
  <symbol id="h" overflow="visible">
   <path fill="#ffffff" d="m1.7344-0.90625v0.90625h-0.48438v-0.70312c0-0.125-0.007812-0.20703-0.015625-0.25 0-0.050781-0.007813-0.09375-0.015625-0.125-0.023438-0.03125-0.046875-0.050781-0.078125-0.0625-0.03125-0.019531-0.070313-0.03125-0.10938-0.03125-0.10547 0-0.1875 0.042969-0.25 0.125-0.054688 0.074219-0.078125 0.17969-0.078125 0.3125v0.73438h-0.46875v-1.5h0.46875v0.21875c0.070313-0.082031 0.14844-0.14453 0.23438-0.1875 0.082031-0.039062 0.17188-0.0625 0.26562-0.0625 0.17578 0 0.30469 0.054688 0.39062 0.15625 0.09375 0.10547 0.14062 0.26172 0.14062 0.46875z"/>
  </symbol>
  <symbol id="u" overflow="visible">
   <path fill="#ffffff" d="m0.23438-2.0781h0.46875v1.125l0.54688-0.54688h0.5625l-0.73438 0.6875 0.79688 0.8125h-0.57812l-0.59375-0.625v0.625h-0.46875z"/>
  </symbol>
  <symbol id="t" overflow="visible">
   <path fill="#ffffff" d="m0.23438-1.5h0.46875v1.5h-0.46875zm0-0.57812h0.46875v0.39062h-0.46875z"/>
  </symbol>
  <symbol id="s" overflow="visible">
   <path fill="#ffffff" d="m1.25-0.25c-0.074219 0.085938-0.15234 0.14844-0.23438 0.1875-0.074219 0.042969-0.16406 0.0625-0.26562 0.0625-0.17969 0-0.32812-0.070312-0.45312-0.21875-0.11719-0.14453-0.17188-0.32812-0.17188-0.54688s0.054688-0.39844 0.17188-0.54688c0.125-0.14453 0.27344-0.21875 0.45312-0.21875 0.10156 0 0.19141 0.023438 0.26562 0.0625 0.082031 0.042969 0.16016 0.10547 0.23438 0.1875v-0.21875h0.48438v1.3438c0 0.23828-0.078125 0.42188-0.23438 0.54688-0.15625 0.13281-0.375 0.20312-0.65625 0.20312-0.09375 0-0.1875-0.011719-0.28125-0.03125-0.085938-0.011719-0.16797-0.03125-0.25-0.0625v-0.375c0.082031 0.050781 0.16016 0.085938 0.23438 0.10938 0.082031 0.03125 0.16406 0.046875 0.25 0.046875 0.15625 0 0.26953-0.039062 0.34375-0.10938 0.070313-0.074219 0.10938-0.17969 0.10938-0.32812zm-0.3125-0.9375c-0.10547 0-0.18359 0.039062-0.23438 0.10938-0.054687 0.074219-0.078125 0.17969-0.078125 0.3125 0 0.13672 0.023438 0.24219 0.078125 0.3125 0.050781 0.074219 0.12891 0.10938 0.23438 0.10938 0.09375 0 0.16406-0.035156 0.21875-0.10938 0.0625-0.070313 0.09375-0.17578 0.09375-0.3125 0-0.13281-0.03125-0.23828-0.09375-0.3125-0.054688-0.070313-0.125-0.10938-0.21875-0.10938z"/>
  </symbol>
  <symbol id="r" overflow="visible">
   <path fill="#ffffff" d="m1.2188-2.0781v0.3125h-0.26562c-0.074219 0-0.125 0.015625-0.15625 0.046875-0.023437 0.023438-0.03125 0.0625-0.03125 0.125v0.09375h0.40625v0.34375h-0.40625v1.1562h-0.46875v-1.1562h-0.25v-0.34375h0.25v-0.09375c0-0.16406 0.039063-0.28516 0.125-0.35938 0.09375-0.082031 0.23438-0.125 0.42188-0.125z"/>
  </symbol>
  <symbol id="g" overflow="visible">
   <path fill="#ffffff" d="m0.9375-1.1875c-0.10547 0-0.1875 0.039062-0.25 0.10938-0.054688 0.074219-0.078125 0.18359-0.078125 0.32812 0 0.14844 0.023437 0.26172 0.078125 0.34375 0.0625 0.074219 0.14453 0.10938 0.25 0.10938 0.10156 0 0.17969-0.035156 0.23438-0.10938 0.0625-0.082031 0.09375-0.19531 0.09375-0.34375 0-0.14453-0.03125-0.25391-0.09375-0.32812-0.054687-0.070313-0.13281-0.10938-0.23438-0.10938zm0-0.34375c0.25781 0 0.46094 0.074219 0.60938 0.21875 0.14453 0.13672 0.21875 0.32422 0.21875 0.5625 0 0.25-0.074219 0.44531-0.21875 0.57812-0.14844 0.13672-0.35156 0.20312-0.60938 0.20312-0.26172 0-0.46484-0.066406-0.60938-0.20312-0.13672-0.13281-0.20312-0.32812-0.20312-0.57812 0-0.23828 0.066406-0.42578 0.20312-0.5625 0.14453-0.14453 0.34766-0.21875 0.60938-0.21875z"/>
  </symbol>
  <symbol id="q" overflow="visible">
   <path fill="#ffffff" d="m1.6094-1.25c0.0625-0.09375 0.13281-0.16016 0.21875-0.20312 0.082031-0.050781 0.17578-0.078125 0.28125-0.078125 0.16406 0 0.29688 0.054688 0.39062 0.15625 0.09375 0.10547 0.14062 0.26172 0.14062 0.46875v0.90625h-0.48438v-0.78125-0.03125-0.0625c0-0.10156-0.015625-0.17578-0.046875-0.21875-0.03125-0.050781-0.085937-0.078125-0.15625-0.078125-0.085937 0-0.15234 0.039063-0.20312 0.10938-0.054688 0.074219-0.078125 0.18359-0.078125 0.32812v0.73438h-0.48438v-0.78125c0-0.16406-0.015625-0.26953-0.046875-0.3125-0.023437-0.050781-0.070313-0.078125-0.14062-0.078125-0.09375 0-0.16797 0.042969-0.21875 0.125-0.054688 0.074219-0.078125 0.17969-0.078125 0.3125v0.73438h-0.46875v-1.5h0.46875v0.21875c0.0625-0.082031 0.12891-0.14453 0.20312-0.1875 0.082031-0.039062 0.16406-0.0625 0.25-0.0625 0.10156 0 0.19141 0.027344 0.26562 0.078125 0.082031 0.054687 0.14453 0.12109 0.1875 0.20312z"/>
  </symbol>
  <symbol id="p" overflow="visible">
   <path fill="#ffffff" d="m0.25-2h0.57812l0.71875 1.375v-1.375h0.48438v2h-0.5625l-0.73438-1.375v1.375h-0.48438z"/>
  </symbol>
  <symbol id="o" overflow="visible">
   <path fill="#ffffff" d="m0.21875-0.57812v-0.92188h0.46875v0.15625 0.3125 0.23438 0.26562c0.007812 0.054688 0.023438 0.089844 0.046875 0.10938 0.019531 0.03125 0.046875 0.058594 0.078125 0.078125 0.03125 0.011719 0.066406 0.015625 0.10938 0.015625 0.09375 0 0.16406-0.035156 0.21875-0.10938 0.0625-0.070312 0.09375-0.17578 0.09375-0.3125v-0.75h0.48438v1.5h-0.48438v-0.21875c-0.074219 0.09375-0.15234 0.16406-0.23438 0.20312-0.074219 0.03125-0.15625 0.046875-0.25 0.046875-0.17969 0-0.3125-0.050781-0.40625-0.15625-0.085938-0.10156-0.125-0.25391-0.125-0.45312z"/>
  </symbol>
  <symbol id="n" overflow="visible">
   <path fill="#ffffff" d="m0.25-2h0.85938c0.25 0 0.44141 0.058594 0.57812 0.17188 0.13281 0.11719 0.20312 0.27734 0.20312 0.48438 0 0.21094-0.070313 0.37109-0.20312 0.48438-0.13672 0.11719-0.32812 0.17188-0.57812 0.17188h-0.34375v0.6875h-0.51562zm0.51562 0.375v0.5625h0.28125c0.10156 0 0.17969-0.019531 0.23438-0.0625 0.050781-0.050781 0.078125-0.125 0.078125-0.21875s-0.027344-0.16016-0.078125-0.20312c-0.054688-0.050781-0.13281-0.078125-0.23438-0.078125z"/>
  </symbol>
  <symbol id="m" overflow="visible">
   <path fill="#ffffff" d="m0.23438-1.5h0.46875v1.4688c0 0.20703-0.046875 0.36328-0.14062 0.46875-0.09375 0.10156-0.23438 0.15625-0.42188 0.15625h-0.23438v-0.3125h0.078125c0.09375 0 0.15625-0.023438 0.1875-0.0625 0.039063-0.042969 0.0625-0.125 0.0625-0.25zm0-0.57812h0.46875v0.39062h-0.46875z"/>
  </symbol>
  <symbol id="l" overflow="visible">
   <path fill="#ffffff" d="m1.4375-1.4531v0.39062c-0.0625-0.039062-0.13281-0.070312-0.20312-0.09375-0.0625-0.019531-0.13281-0.03125-0.20312-0.03125-0.125 0-0.23047 0.042969-0.3125 0.125-0.074219 0.074219-0.10938 0.17969-0.10938 0.3125 0 0.14844 0.035156 0.26172 0.10938 0.34375 0.082031 0.074219 0.1875 0.10938 0.3125 0.10938 0.082031 0 0.15625-0.007813 0.21875-0.03125 0.070312-0.03125 0.13281-0.066406 0.1875-0.10938v0.39062c-0.074219 0.03125-0.15234 0.050781-0.23438 0.0625-0.074219 0.0078125-0.14844 0.015625-0.21875 0.015625-0.27344 0-0.48438-0.066406-0.64062-0.20312-0.14844-0.13281-0.21875-0.32812-0.21875-0.57812 0-0.23828 0.070312-0.42578 0.21875-0.5625 0.15625-0.14453 0.36719-0.21875 0.64062-0.21875 0.070313 0 0.14453 0.011719 0.21875 0.03125 0.082031 0.011719 0.16016 0.027344 0.23438 0.046875z"/>
  </symbol>
 </defs>
 <g>
  <path fill="#ffffff" d="m470.09 467c-0.011719 0.76562-0.039063 1.5273-0.089844 2.293-0.16016 2.4219 0.28906-1.4258-0.125 0.94141-0.25391 1.4531-0.67578 2.8711-1.1523 4.2617-0.75781 2.2188 0.63672-1.2656-0.34375 0.85547-0.30078 0.65625-0.65234 1.2852-1.0039 1.918-0.35156 0.62891-0.74609 1.2266-1.1445 1.8281-0.52734 0.72266-0.55078 0.78125-0.078124 0.17969-0.29688 0.375-0.60547 0.73828-0.91797 1.0977-0.93359 1.0859-1.9844 2.0625-3.0703 2.9922-1.75 1.5039 1.1602-0.79297-0.73438 0.53125-0.58984 0.41016-1.207 0.77734-1.8281 1.1445-0.62109 0.36719-1.2695 0.6875-1.918 1.0039-2.0938 1.0312 1.3438-0.47266-0.85547 0.34375-1.6172 0.59766-3.3008 0.98438-4.9961 1.2773 1.5938-0.27734-0.83984 0.039062-0.96484 0.046875-0.41406 0.027344-1.125 0.039062-1.5352 0.039062h-0.097656-0.70703-3.1562-31.664-103.43-40.191-10.305-1.8438c-4.0859 0-7.2852-0.90625-10.957-3.0781-0.61719-0.36719-1.207-0.77734-1.7969-1.1875 1.2539 0.87891-0.58984-0.50391-0.69141-0.58594-1.0859-0.93359-2.0625-1.9844-2.9922-3.0703-1.5039-1.75 0.79297 1.1602-0.53125-0.73438-0.41016-0.58984-0.77734-1.207-1.1445-1.8281-0.36719-0.62109-0.6875-1.2695-1.0039-1.918-0.375-0.82031-0.40234-0.87891-0.089844-0.17187-0.17578-0.45313-0.33984-0.91406-0.48828-1.375-0.47656-1.3984-0.78906-2.8516-1.043-4.3047 0.27734 1.5938-0.039062-0.83984-0.046874-0.96484-0.027344-0.41016-0.039063-1.125-0.039063-1.5352v-0.20703-3.9922-21.492-82.383-107-98.125-55.758-3.3945c0-1.043 0.066406-2.0742 0.16016-3.1133-0.14844 1.5977 0.17188-0.78125 0.19922-0.91797 0.14453-0.72266 0.34766-1.4336 0.55078-2.1445 0.19922-0.70312 0.45312-1.3906 0.70703-2.0742-0.50391 1.3594 0.60547-1.1953 0.74219-1.457 0.33594-0.63672 0.71875-1.2461 1.0977-1.8555 0.058594-0.09375 1.4258-2.0039 0.47266-0.78125 0.87891-1.1328 1.8789-2.1602 2.9141-3.1445 0.51953-0.49219 1.0742-0.94531 1.625-1.3984-1.1953 0.97656 0.68359-0.41016 0.78125-0.47266 0.60156-0.39844 1.2305-0.75 1.8555-1.0977 0.25-0.14062 2.8125-1.2852 1.457-0.74219 1.3633-0.54687 2.7852-0.92969 4.2188-1.2578 0.125-0.027344 2.5195-0.39062 0.91797-0.19922 0.75391-0.089843 1.5156-0.12109 2.2773-0.15234 0.35156-0.015626 0.71094-0.011719 1.0625-0.011719h2.4141 11.273 94.824 79.664 2.6016 0.39062c1.0234 0 2.0352 0.066406 3.0547 0.16016-1.5977-0.14844 0.78125 0.17188 0.91797 0.19922 0.96484 0.19531 1.9062 0.47656 2.8438 0.76953 0.10547 0.035156 2.332 0.89453 0.88672 0.27344 0.66406 0.28516 1.3047 0.62109 1.9453 0.95703 0.63672 0.33594 1.2461 0.71875 1.8555 1.0977 0.09375 0.058594 2.0039 1.4258 0.78125 0.47266 1.1289 0.87891 2.1562 1.8789 3.1445 2.9141 0.49219 0.51953 0.94531 1.0742 1.3984 1.625-0.91406-1.1172 0.70703 1.1523 0.85547 1.3867 2.2344 3.5664 3.0781 6.9336 3.0781 10.922v11.148 68.98 103.31 104.15 71.492c0.007813 4.4492 0.007813 8.8828 0.007813 13.316 0 4.1719 3.4844 7.6562 7.6562 7.6562 4.1719 0 7.6562-3.4844 7.6562-7.6562v-37.207-89.289-107.88-92.973-44.574c0-20.008-16.191-36.57-36.309-36.57h-21.734-99.672-69.359c-20.062 0-36.52 16.293-36.52 36.402v13.406 71.984 104.3 103.13 68.469 10.766c0 13.074 7.3125 25.277 18.695 31.625 5.8672 3.2734 12.406 4.4531 19.047 4.4531h75.594 97.066 16.676c19.992 0 36.254-16.082 36.52-36.062 0.054687-4.1719-3.5234-7.6562-7.6562-7.6562-4.2188 0.007812-7.6055 3.4922-7.6602 7.6641z"/>
  <path fill="#ffffff" d="m234.72 412.59h53.25 105.1 74.973 4.4453c4.1719 0 7.6562-3.4844 7.6562-7.6562 0-4.1719-3.4844-7.6562-7.6562-7.6562h-53.25-105.1-74.973-4.4453c-4.1719 0-7.6562 3.4844-7.6562 7.6562 0 4.1758 3.4844 7.6562 7.6562 7.6562z"/>
  <path fill="#ffffff" d="m334.66 457.82h37.875c4.1719 0 7.6562-3.4844 7.6562-7.6562s-3.4844-7.6562-7.6562-7.6562h-37.875c-4.1719 0-7.6562 3.4844-7.6562 7.6562 0 4.1758 3.4844 7.6562 7.6562 7.6562z"/>
  <path fill="#ffffff" d="m292.04 220.09c14.785-21.508 29.57-43.012 44.359-64.52 8.3672-12.172 16.738-24.344 25.105-36.516 2.3672-3.4453 0.65234-8.4844-2.7461-10.477-3.8008-2.2266-8.1172-0.68359-10.477 2.7461-14.785 21.508-29.57 43.012-44.359 64.52-8.3672 12.172-16.738 24.344-25.105 36.516-2.3672 3.4453-0.65625 8.4844 2.7461 10.477 3.8008 2.2266 8.1172 0.68359 10.477-2.7461z"/>
  <path fill="#ffffff" d="m281.78 150.86c7.2891-10.598 14.574-21.199 21.859-31.797 2.3672-3.4453 0.65625-8.4844-2.7461-10.477-3.8008-2.2266-8.1172-0.68359-10.477 2.7461-7.2891 10.598-14.574 21.199-21.859 31.797-2.3672 3.4453-0.65625 8.4844 2.7461 10.477 3.8008 2.2266 8.1172 0.68359 10.477-2.7461z"/>
  <use x="70" y="568.203125" xlink:href="#v"/>
 </g>
</svg>
